<?xml version="1.0" standalone="no"?>
<!DOCTYPE svg PUBLIC "-//W3C//DTD SVG 20010904//EN"
 "http://www.w3.org/TR/2001/REC-SVG-20010904/DTD/svg10.dtd">
<svg version="1.0" xmlns="http://www.w3.org/2000/svg"
 width="200.000000pt" height="200.000000pt" viewBox="0 0 200.000000 200.000000"
 preserveAspectRatio="xMidYMid meet">

<g transform="translate(0.000000,200.000000) scale(0.100000,-0.100000)"
fill="#000000" stroke="none">
<path d="M0 1000 l0 -1000 1000 0 1000 0 0 1000 0 1000 -1000 0 -1000 0 0
-1000z m1175 715 c135 -29 219 -90 269 -195 20 -43 21 -61 24 -480 4 -537 -2
-577 -96 -662 -85 -76 -192 -108 -366 -108 -144 0 -203 11 -293 55 -138 68
-173 139 -173 346 0 162 18 219 94 294 49 49 59 53 261 124 231 80 278 102
308 143 31 42 35 133 9 192 -18 39 -30 50 -74 71 -44 21 -68 25 -143 25 -140
-1 -203 -40 -221 -140 -4 -19 -12 -38 -18 -42 -6 -4 -54 -8 -107 -8 -119 0
-124 4 -115 93 18 157 117 258 285 292 90 18 271 18 356 0z"/>
<path d="M1205 964 c-11 -7 -83 -35 -160 -62 -168 -59 -195 -72 -229 -112 -40
-48 -52 -101 -38 -167 15 -74 35 -101 90 -126 55 -24 193 -29 254 -8 46 15 95
70 103 113 3 18 5 110 3 204 -3 169 -3 171 -23 158z"/>
</g>
</svg>
